<?xml version="1.0" standalone="no"?>
<!DOCTYPE svg PUBLIC "-//W3C//DTD SVG 20010904//EN"
 "http://www.w3.org/TR/2001/REC-SVG-20010904/DTD/svg10.dtd">
<svg version="1.0" xmlns="http://www.w3.org/2000/svg"
 width="300.000000pt" height="285.000000pt" viewBox="0 0 300.000000 285.000000"
 preserveAspectRatio="xMidYMid meet">
<metadata>
Created by potrace 1.10, written by Peter Selinger 2001-2011
</metadata>
<g transform="translate(0.000000,285.000000) scale(0.100000,-0.100000)"
fill="#000000" stroke="none">
<path d="M1370 2260 c8 -5 76 -10 150 -10 74 0 142 5 150 10 10 6 -40 10 -150
10 -110 0 -160 -4 -150 -10z"/>
<path d="M1774 2228 c-5 -8 -2 -9 9 -5 10 3 17 2 17 -4 0 -6 5 -7 10 -4 6 3
10 1 10 -6 0 -7 3 -10 6 -7 3 3 17 -5 31 -18 14 -13 28 -22 32 -21 7 2 65 -54
67 -65 1 -5 3 -11 4 -15 1 -5 2 -11 1 -15 0 -4 6 -5 14 -2 17 7 20 -7 5 -22
-7 -7 -4 -16 10 -29 24 -21 26 -53 5 -61 -8 -4 -12 -10 -9 -15 9 -15 34 18 34
46 0 14 -7 28 -15 31 -10 4 -13 14 -9 30 4 17 1 26 -10 30 -9 3 -14 10 -11 14
7 12 -96 105 -143 129 -48 25 -49 25 -58 9z"/>
<path d="M1230 2219 c0 -5 -4 -7 -10 -4 -5 3 -10 1 -10 -5 0 -6 -4 -8 -10 -5
-5 3 -10 1 -10 -5 0 -6 -4 -9 -9 -5 -11 6 -111 -89 -129 -122 -9 -16 -9 -24 0
-29 6 -4 8 -3 5 3 -4 6 0 14 9 17 9 4 14 9 11 12 -7 8 95 99 133 119 25 13 41
35 25 35 -3 0 -5 -5 -5 -11z"/>
<path d="M1220 2180 c-11 -11 -20 -17 -20 -12 0 4 -7 -2 -15 -12 -8 -11 -15
-16 -15 -11 0 5 -18 -8 -40 -30 -21 -21 -37 -42 -35 -46 3 -4 -2 -10 -11 -13
-8 -3 -13 -10 -10 -15 8 -13 -19 -21 -33 -10 -8 6 -8 5 -1 -3 16 -19 11 -32
-7 -17 -15 13 -15 12 -2 -8 8 -13 17 -23 22 -23 4 0 5 5 2 10 -3 6 -1 10 5 10
6 0 9 4 6 9 -3 5 1 12 10 15 9 4 14 9 11 12 -3 4 4 15 16 25 12 10 19 18 15
19 -4 0 3 10 15 23 12 13 25 22 28 21 3 -2 20 10 37 25 17 16 33 26 36 23 3
-3 6 0 6 7 0 7 5 9 10 6 6 -3 10 -1 10 4 0 17 -18 13 -40 -9z"/>
<path d="M1787 2193 c-7 -11 19 -26 35 -20 4 1 14 -7 22 -18 9 -11 16 -17 16
-12 0 4 16 -11 36 -33 20 -22 41 -40 47 -40 6 0 2 7 -9 15 -10 8 -15 15 -10
15 5 0 3 7 -4 15 -7 8 -16 12 -21 10 -4 -3 -13 4 -19 15 -6 11 -15 18 -19 15
-5 -3 -12 2 -15 11 -3 8 -10 12 -16 9 -5 -3 -10 -1 -10 5 0 6 -4 9 -9 6 -5 -4
-11 -1 -13 6 -3 9 -6 9 -11 1z"/>
<path d="M1920 2019 c0 -5 4 -8 9 -5 12 8 9 -47 -3 -56 -6 -4 -3 -15 8 -27 22
-24 45 -29 26 -6 -10 12 -10 15 1 15 12 0 12 2 0 9 -8 5 -11 16 -8 26 4 9 3
14 -3 10 -6 -3 -10 -2 -10 4 0 5 5 13 11 17 8 4 7 9 -2 15 -19 12 -29 11 -29
-2z"/>
<path d="M2050 1979 c0 -7 -12 -26 -27 -41 -32 -34 -24 -38 9 -5 13 13 29 22
36 19 16 -5 15 6 -3 24 -11 11 -15 12 -15 3z"/>
<path d="M1125 1440 l0 -485 53 -1 52 -1 -50 4 -50 4 -3 482 -2 482 0 -485z"/>
<path d="M1845 1910 c14 -6 15 -9 5 -10 -8 0 -2 -8 15 -17 17 -10 34 -16 39
-15 5 2 6 -4 2 -13 -3 -9 -2 -14 3 -11 4 3 9 -15 10 -41 0 -25 4 -49 6 -53 3
-5 1 -12 -5 -15 -6 -4 -8 -16 -4 -27 4 -15 3 -18 -6 -13 -9 5 -11 4 -6 -4 11
-17 29 -2 23 20 -3 11 -1 19 4 19 15 0 10 88 -6 120 -18 34 -61 70 -84 69 -12
0 -11 -2 4 -9z"/>
<path d="M2041 1908 c-1 -9 -6 -20 -13 -24 -8 -5 -9 -2 -5 9 8 23 0 22 -12 -1
-8 -14 -5 -18 10 -19 21 -2 34 18 26 39 -4 8 -6 7 -6 -4z"/>
<path d="M1011 1883 c1 -10 5 -29 9 -43 7 -21 8 -19 9 18 1 23 -3 42 -9 42 -5
0 -10 -8 -9 -17z"/>
<path d="M1960 1877 c0 -7 7 -22 15 -33 17 -22 20 -38 5 -29 -5 3 -10 1 -10
-4 0 -16 16 -13 30 4 9 11 9 15 1 15 -7 0 -10 4 -6 10 3 5 -3 18 -15 30 -13
13 -20 15 -20 7z"/>
<path d="M980 1616 c0 -198 2 -255 12 -259 10 -4 10 -6 1 -6 -16 -1 -17 -31
-2 -31 5 0 7 5 4 10 -3 6 -2 10 4 10 5 0 12 -4 15 -9 7 -11 -20 -34 -32 -27
-6 3 -16 -2 -23 -12 -13 -16 -13 -16 5 -2 18 14 18 13 12 -7 -7 -21 10 -70 21
-60 2 3 -1 14 -8 26 -12 17 -10 23 10 45 23 25 47 26 38 2 -3 -7 5 -13 19 -14
21 -2 19 2 -17 39 l-39 40 0 249 c0 144 -4 251 -9 255 -6 3 -10 -94 -11 -249z"/>
<path d="M2020 1334 l0 -474 -500 0 c-327 0 -500 -3 -500 -10 0 -5 -4 -10 -10
-10 -6 0 -10 45 -10 114 0 85 -4 121 -16 142 -15 27 -15 27 -10 4 3 -14 6 -82
6 -151 l0 -126 30 5 c16 2 27 8 24 13 -3 5 216 10 496 11 437 3 503 1 510 -12
6 -9 10 192 12 476 3 461 2 490 -14 491 -17 2 -18 -27 -18 -473z"/>
<path d="M1294 1677 c-3 -8 -3 -41 -1 -73 l3 -59 2 68 2 67 199 0 c126 0 201
-4 204 -10 3 -6 4 -5 3 2 -4 20 -404 24 -412 5z"/>
<path d="M1854 1632 c-22 -26 -46 -48 -54 -50 -8 -2 -20 -10 -26 -17 -6 -8
-13 -13 -15 -11 -2 3 -3 -126 -1 -285 l3 -289 54 0 c30 0 55 -4 55 -10 0 -6
-60 -10 -160 -10 -100 0 -160 4 -160 10 0 6 25 10 55 10 l55 0 0 254 c0 213
-2 256 -15 266 -11 9 -15 9 -15 1 0 -7 -4 -9 -10 -6 -5 3 -24 -2 -42 -11 -37
-19 -94 -64 -81 -64 4 0 0 -5 -10 -11 -21 -12 -52 -69 -37 -69 5 0 10 3 10 8
0 13 77 101 84 95 3 -3 8 2 12 11 3 9 10 13 15 10 5 -3 9 0 9 6 0 6 5 8 10 5
6 -3 10 -3 10 2 0 4 11 9 25 9 24 2 25 0 25 -66 0 -45 -4 -70 -12 -73 -10 -4
-10 -6 0 -6 6 -1 12 -12 12 -25 0 -13 -6 -27 -12 -29 -10 -4 -10 -6 0 -6 9 -1
12 -37 12 -145 l0 -145 -52 -3 c-41 -2 -54 -7 -56 -21 -3 -16 8 -17 165 -15
141 3 168 5 168 18 0 11 -14 16 -52 18 l-53 3 0 280 c0 187 3 279 10 279 6 0
23 12 38 27 15 15 30 28 35 28 4 0 6 3 5 6 -2 3 10 17 26 31 16 14 25 27 20
31 -5 3 -27 -16 -50 -41z"/>
<path d="M1402 1618 l2 -53 3 48 c4 46 5 47 38 47 24 0 35 -5 38 -17 4 -14 5
-12 6 5 1 20 -4 22 -44 22 l-45 0 2 -52z"/>
<path d="M1576 1621 c-18 -33 -76 -86 -106 -96 -12 -4 -19 -9 -17 -12 15 -15
137 88 137 116 0 5 10 12 23 14 l22 4 -22 2 c-15 1 -27 -8 -37 -28z"/>
<path d="M1458 1590 c-9 -16 -32 -39 -50 -50 -18 -11 -28 -20 -21 -20 15 0 71
47 84 72 17 32 5 30 -13 -2z"/>
<path d="M1257 1493 l33 -4 2 -267 3 -267 55 0 55 0 3 173 c1 94 6 172 11 172
5 0 7 -10 3 -22 -3 -14 -2 -19 6 -14 7 4 12 13 12 21 0 10 18 15 63 18 53 3
50 4 -20 4 l-83 1 0 -174 0 -174 -50 0 -50 0 0 270 0 270 -37 -2 c-37 -1 -37
-1 -6 -5z"/>
<path d="M1402 1418 c-1 -48 1 -89 6 -91 4 -3 6 23 4 56 -5 111 -9 124 -10 35z"/>
<path d="M1520 1330 c-16 -6 -6 -7 30 -3 30 3 57 7 59 9 8 7 -64 2 -89 -6z"/>
<path d="M932 1254 c-15 -16 -16 -34 -1 -34 5 0 7 5 4 10 -10 17 5 11 27 -10
12 -11 16 -20 10 -20 -18 0 -14 -26 6 -41 15 -13 16 -12 3 4 -20 25 -1 43 28
28 19 -11 21 -9 21 14 0 26 -15 34 -23 13 -6 -17 -38 1 -52 29 -9 17 -13 18
-23 7z"/>
<path d="M1049 1261 c-1 -3 -3 -19 -5 -34 -2 -24 -1 -27 12 -17 17 15 19 34 2
25 -7 -4 -5 0 5 8 9 8 17 16 17 19 0 7 -30 6 -31 -1z"/>
<path d="M1424 1224 c3 -9 6 -25 6 -35 0 -13 4 -18 12 -13 8 5 9 2 5 -9 -4
-10 -2 -16 5 -14 6 1 13 -4 16 -12 3 -10 0 -11 -9 -5 -10 6 -10 2 2 -16 17
-26 39 -38 39 -21 0 6 -13 32 -30 58 -16 26 -30 55 -30 65 0 10 -5 18 -11 18
-6 0 -8 -7 -5 -16z"/>
<path d="M1105 721 c0 -71 12 -68 18 4 l3 50 2 -52 c1 -28 6 -54 11 -57 5 -4
7 3 4 14 -4 15 0 20 16 20 11 0 21 5 21 11 0 6 -9 8 -20 4 -17 -5 -20 -2 -20
24 0 37 29 44 38 9 5 -21 6 -21 13 -2 5 13 7 6 7 -23 0 -22 3 -46 7 -52 9 -16
25 -3 25 21 0 16 4 19 25 14 19 -5 23 -3 19 9 -4 8 -2 15 3 15 5 0 10 -14 11
-31 2 -19 -2 -28 -8 -24 -5 3 -10 1 -10 -4 0 -6 7 -11 15 -11 11 0 15 11 15
39 0 22 5 42 13 44 8 4 7 6 -3 6 -9 1 -26 -6 -38 -15 -13 -9 -29 -13 -37 -10
-10 3 -15 -5 -18 -27 -3 -25 -4 -23 -4 10 1 55 -16 73 -67 73 l-41 0 0 -59z"/>
<path d="M1375 721 c0 -71 12 -68 18 4 l3 50 2 -57 c1 -32 6 -58 11 -58 4 0 6
11 3 25 -6 34 24 34 40 0 12 -27 41 -41 59 -29 19 11 59 13 59 3 0 -5 7 -9 15
-9 8 0 15 5 15 10 0 6 -7 10 -15 10 -10 0 -15 10 -15 31 0 29 2 31 26 25 19
-5 25 -3 22 6 -5 15 -48 24 -48 11 0 -12 -38 -14 -45 -2 -8 13 -45 11 -45 -2
0 -5 10 -9 22 -7 12 2 23 -3 25 -12 3 -10 2 -11 -4 -4 -12 16 -53 -1 -54 -23
-1 -12 -3 -9 -8 7 -4 15 -15 26 -29 28 -14 2 -22 10 -22 24 0 16 5 19 25 16
14 -3 25 -1 25 3 0 5 -19 9 -42 9 l-43 0 0 -59z m184 -23 c0 -18 -3 -28 -5
-21 -4 9 -14 8 -38 -2 -38 -16 -46 -12 -39 15 4 15 11 18 28 14 14 -3 28 0 36
10 19 21 19 21 18 -16z"/>
<path d="M1620 770 c0 -6 11 -8 26 -4 26 7 26 7 23 -49 -2 -30 -1 -53 4 -50 4
2 8 28 9 56 l2 52 3 -50 c2 -27 7 -53 11 -57 4 -4 5 18 3 49 l-3 56 27 -7 c17
-4 24 -3 20 4 -8 13 -125 13 -125 0z"/>
<path d="M1322 730 c-13 -22 -16 -56 -4 -63 4 -3 7 9 7 26 0 27 4 32 23 31 12
0 22 5 22 13 0 20 -34 15 -48 -7z"/>
<path d="M1745 740 c-4 -6 6 -7 25 -4 37 8 37 -7 0 -45 -14 -14 -22 -23 -17
-19 5 3 19 3 31 -1 18 -7 87 -7 121 0 6 1 33 -1 60 -5 l50 -7 0 30 c0 16 -2
28 -5 26 -3 -2 -11 4 -19 12 -12 13 -11 14 8 8 11 -3 21 -3 21 2 0 16 -44 12
-64 -5 -16 -14 -18 -14 -14 -2 4 11 -1 16 -15 18 -14 1 -17 -2 -9 -7 18 -11 9
-54 -12 -57 -22 -3 -32 22 -16 41 7 9 11 18 8 20 -5 5 -21 -25 -32 -58 -9 -28
-31 -14 -31 19 0 20 5 29 17 29 9 0 20 4 24 8 4 4 -7 7 -25 7 -19 0 -30 -4
-26 -10 3 -5 2 -10 -4 -10 -5 0 -13 5 -16 10 -8 13 -52 13 -60 0z m230 -31
c-3 -5 1 -6 9 -3 11 4 16 0 16 -14 0 -15 -6 -20 -20 -19 -15 1 -20 8 -20 30 0
16 4 26 10 22 6 -4 8 -11 5 -16z"/>
<path d="M1010 729 c0 -4 20 -8 45 -7 24 0 42 4 40 9 -7 10 -85 9 -85 -2z"/>
<path d="M1013 695 c7 -8 16 -10 23 -4 6 5 13 6 17 3 3 -3 13 -2 22 3 12 7 4
10 -29 10 -36 1 -42 -2 -33 -12z"/>
</g>
</svg>
